<svg viewBox="0 0 11 60" xmlns="http://www.w3.org/2000/svg" style="background-color: #FFFFFF">
        <polyline points="7.381051177665153,0.6460254037844386 7.381051177665153,1.0860254037844386 7,1.3060254037844385 6.618948822334847,1.0860254037844386 6.618948822334847,0.6460254037844386 7,0.4260254037844386" fill="#1F1F1F" />
<polyline points="8.381051177665153,0.6460254037844386 8.381051177665153,1.0860254037844386 8,1.3060254037844385 7.618948822334847,1.0860254037844386 7.618948822334847,0.6460254037844386 8,0.4260254037844386" fill="#1F1F1F" />
<polyline points="7.881051177665153,1.5120508075688772 7.881051177665153,1.9520508075688772 7.5,2.172050807568877 7.118948822334847,1.9520508075688772 7.118948822334847,1.5120508075688772 7.5,1.2920508075688772" fill="#1F1F1F" />
<polyline points="7.381051177665153,2.378076211353316 7.381051177665153,2.818076211353316 7,3.038076211353316 6.618948822334847,2.818076211353316 6.618948822334847,2.378076211353316 7,2.158076211353316" fill="#1F1F1F" />
<polyline points="8.381051177665153,2.378076211353316 8.381051177665153,2.818076211353316 8,3.038076211353316 7.618948822334847,2.818076211353316 7.618948822334847,2.378076211353316 8,2.158076211353316" fill="#1F1F1F" />
<polyline points="9.381051177665153,2.378076211353316 9.381051177665153,2.818076211353316 9,3.038076211353316 8.618948822334847,2.818076211353316 8.618948822334847,2.378076211353316 9,2.158076211353316" fill="#1F1F1F" />
<polyline points="7.881051177665153,3.244101615137754 7.881051177665153,3.6841016151377546 7.5,3.9041016151377543 7.118948822334847,3.6841016151377546 7.118948822334847,3.244101615137754 7.5,3.0241016151377544" fill="#1F1F1F" />
<polyline points="8.881051177665153,3.244101615137754 8.881051177665153,3.6841016151377546 8.5,3.9041016151377543 8.118948822334847,3.6841016151377546 8.118948822334847,3.244101615137754 8.5,3.0241016151377544" fill="#1F1F1F" />
<polyline points="8.381051177665153,4.110127018922193 8.381051177665153,4.5501270189221925 8,4.770127018922193 7.618948822334847,4.5501270189221925 7.618948822334847,4.110127018922193 8,3.890127018922193" fill="#1F1F1F" />
<polyline points="9.381051177665153,4.110127018922193 9.381051177665153,4.5501270189221925 9,4.770127018922193 8.618948822334847,4.5501270189221925 8.618948822334847,4.110127018922193 9,3.890127018922193" fill="#1F1F1F" />
<polyline points="7.881051177665153,4.976152422706632 7.881051177665153,5.416152422706632 7.5,5.636152422706632 7.118948822334847,5.416152422706632 7.118948822334847,4.976152422706632 7.5,4.756152422706632" fill="#1F1F1F" />
<polyline points="8.881051177665153,4.976152422706632 8.881051177665153,5.416152422706632 8.5,5.636152422706632 8.118948822334847,5.416152422706632 8.118948822334847,4.976152422706632 8.5,4.756152422706632" fill="#1F1F1F" />
<polyline points="7.381051177665153,5.842177826491071 7.381051177665153,6.28217782649107 7,6.502177826491071 6.618948822334847,6.28217782649107 6.618948822334847,5.842177826491071 7,5.62217782649107" fill="#1F1F1F" />
<polyline points="8.381051177665153,5.842177826491071 8.381051177665153,6.28217782649107 8,6.502177826491071 7.618948822334847,6.28217782649107 7.618948822334847,5.842177826491071 8,5.62217782649107" fill="#1F1F1F" />
<polyline points="9.381051177665153,5.842177826491071 9.381051177665153,6.28217782649107 9,6.502177826491071 8.618948822334847,6.28217782649107 8.618948822334847,5.842177826491071 9,5.62217782649107" fill="#1F1F1F" />
<polyline points="7.881051177665153,6.708203230275509 7.881051177665153,7.1482032302755085 7.5,7.368203230275509 7.118948822334847,7.1482032302755085 7.118948822334847,6.708203230275509 7.5,6.488203230275508" fill="#1F1F1F" />
<polyline points="8.881051177665153,6.708203230275509 8.881051177665153,7.1482032302755085 8.5,7.368203230275509 8.118948822334847,7.1482032302755085 8.118948822334847,6.708203230275509 8.5,6.488203230275508" fill="#1F1F1F" />
<polyline points="9.881051177665153,6.708203230275509 9.881051177665153,7.1482032302755085 9.5,7.368203230275509 9.118948822334847,7.1482032302755085 9.118948822334847,6.708203230275509 9.5,6.488203230275508" fill="#1F1F1F" />
<polyline points="10.881051177665153,6.708203230275509 10.881051177665153,7.1482032302755085 10.5,7.368203230275509 10.118948822334847,7.1482032302755085 10.118948822334847,6.708203230275509 10.5,6.488203230275508" fill="#1F1F1F" />
<polyline points="7.381051177665153,7.574228634059947 7.381051177665153,8.014228634059947 7,8.234228634059948 6.618948822334847,8.014228634059947 6.618948822334847,7.574228634059947 7,7.354228634059947" fill="#1F1F1F" />
<polyline points="8.381051177665153,7.574228634059947 8.381051177665153,8.014228634059947 8,8.234228634059948 7.618948822334847,8.014228634059947 7.618948822334847,7.574228634059947 8,7.354228634059947" fill="#1F1F1F" />
<polyline points="9.381051177665153,7.574228634059947 9.381051177665153,8.014228634059947 9,8.234228634059948 8.618948822334847,8.014228634059947 8.618948822334847,7.574228634059947 9,7.354228634059947" fill="#1F1F1F" />
<polyline points="10.381051177665153,7.574228634059947 10.381051177665153,8.014228634059947 10,8.234228634059948 9.618948822334847,8.014228634059947 9.618948822334847,7.574228634059947 10,7.354228634059947" fill="#1F1F1F" />
<polyline points="7.881051177665153,8.440254037844385 7.881051177665153,8.880254037844386 7.5,9.100254037844385 7.118948822334847,8.880254037844386 7.118948822334847,8.440254037844385 7.5,8.220254037844386" fill="#1F1F1F" />
<polyline points="8.881051177665153,8.440254037844385 8.881051177665153,8.880254037844386 8.5,9.100254037844385 8.118948822334847,8.880254037844386 8.118948822334847,8.440254037844385 8.5,8.220254037844386" fill="#1F1F1F" />
<polyline points="9.881051177665153,8.440254037844385 9.881051177665153,8.880254037844386 9.5,9.100254037844385 9.118948822334847,8.880254037844386 9.118948822334847,8.440254037844385 9.5,8.220254037844386" fill="#1F1F1F" />
<polyline points="7.381051177665153,9.306279441628824 7.381051177665153,9.746279441628825 7,9.966279441628824 6.618948822334847,9.746279441628825 6.618948822334847,9.306279441628824 7,9.086279441628825" fill="#1F1F1F" />
<polyline points="8.381051177665153,9.306279441628824 8.381051177665153,9.746279441628825 8,9.966279441628824 7.618948822334847,9.746279441628825 7.618948822334847,9.306279441628824 8,9.086279441628825" fill="#1F1F1F" />
<polyline points="9.381051177665153,9.306279441628824 9.381051177665153,9.746279441628825 9,9.966279441628824 8.618948822334847,9.746279441628825 8.618948822334847,9.306279441628824 9,9.086279441628825" fill="#1F1F1F" />
<polyline points="6.881051177665153,10.172304845413263 6.881051177665153,10.612304845413265 6.5,10.832304845413264 6.118948822334847,10.612304845413265 6.118948822334847,10.172304845413263 6.5,9.952304845413265" fill="#1F1F1F" />
<polyline points="7.881051177665153,10.172304845413263 7.881051177665153,10.612304845413265 7.5,10.832304845413264 7.118948822334847,10.612304845413265 7.118948822334847,10.172304845413263 7.5,9.952304845413265" fill="#1F1F1F" />
<polyline points="8.881051177665153,10.172304845413263 8.881051177665153,10.612304845413265 8.5,10.832304845413264 8.118948822334847,10.612304845413265 8.118948822334847,10.172304845413263 8.5,9.952304845413265" fill="#1F1F1F" />
<polyline points="7.381051177665153,11.038330249197701 7.381051177665153,11.478330249197702 7,11.698330249197701 6.618948822334847,11.478330249197702 6.618948822334847,11.038330249197701 7,10.818330249197702" fill="#1F1F1F" />
<polyline points="8.381051177665153,11.038330249197701 8.381051177665153,11.478330249197702 8,11.698330249197701 7.618948822334847,11.478330249197702 7.618948822334847,11.038330249197701 8,10.818330249197702" fill="#1F1F1F" />
<polyline points="9.381051177665153,11.038330249197701 9.381051177665153,11.478330249197702 9,11.698330249197701 8.618948822334847,11.478330249197702 8.618948822334847,11.038330249197701 9,10.818330249197702" fill="#1F1F1F" />
<polyline points="6.881051177665153,11.90435565298214 6.881051177665153,12.344355652982141 6.5,12.56435565298214 6.118948822334847,12.344355652982141 6.118948822334847,11.90435565298214 6.5,11.684355652982141" fill="#1F1F1F" />
<polyline points="7.881051177665153,11.90435565298214 7.881051177665153,12.344355652982141 7.5,12.56435565298214 7.118948822334847,12.344355652982141 7.118948822334847,11.90435565298214 7.5,11.684355652982141" fill="#1F1F1F" />
<polyline points="8.881051177665153,11.90435565298214 8.881051177665153,12.344355652982141 8.5,12.56435565298214 8.118948822334847,12.344355652982141 8.118948822334847,11.90435565298214 8.5,11.684355652982141" fill="#1F1F1F" />
<polyline points="7.381051177665153,12.770381056766578 7.381051177665153,13.210381056766579 7,13.430381056766578 6.618948822334847,13.210381056766579 6.618948822334847,12.770381056766578 7,12.550381056766579" fill="#1F1F1F" />
<polyline points="8.381051177665153,12.770381056766578 8.381051177665153,13.210381056766579 8,13.430381056766578 7.618948822334847,13.210381056766579 7.618948822334847,12.770381056766578 8,12.550381056766579" fill="#1F1F1F" />
<polyline points="6.881051177665153,13.636406460551017 6.881051177665153,14.076406460551018 6.5,14.296406460551017 6.118948822334847,14.076406460551018 6.118948822334847,13.636406460551017 6.5,13.416406460551018" fill="#1F1F1F" />
<polyline points="7.881051177665153,13.636406460551017 7.881051177665153,14.076406460551018 7.5,14.296406460551017 7.118948822334847,14.076406460551018 7.118948822334847,13.636406460551017 7.5,13.416406460551018" fill="#1F1F1F" />
<polyline points="6.381051177665153,14.502431864335456 6.381051177665153,14.942431864335457 6,15.162431864335456 5.618948822334847,14.942431864335457 5.618948822334847,14.502431864335456 6,14.282431864335457" fill="#1F1F1F" />
<polyline points="7.381051177665153,14.502431864335456 7.381051177665153,14.942431864335457 7,15.162431864335456 6.618948822334847,14.942431864335457 6.618948822334847,14.502431864335456 7,14.282431864335457" fill="#1F1F1F" />
<polyline points="5.881051177665153,15.368457268119894 5.881051177665153,15.808457268119895 5.5,16.028457268119894 5.118948822334847,15.808457268119895 5.118948822334847,15.368457268119894 5.5,15.148457268119895" fill="#1F1F1F" />
<polyline points="6.881051177665153,15.368457268119894 6.881051177665153,15.808457268119895 6.5,16.028457268119894 6.118948822334847,15.808457268119895 6.118948822334847,15.368457268119894 6.5,15.148457268119895" fill="#1F1F1F" />
<polyline points="6.381051177665153,16.234482671904335 6.381051177665153,16.674482671904332 6,16.894482671904335 5.618948822334847,16.674482671904332 5.618948822334847,16.234482671904335 6,16.014482671904332" fill="#1F1F1F" />
<polyline points="7.381051177665153,16.234482671904335 7.381051177665153,16.674482671904332 7,16.894482671904335 6.618948822334847,16.674482671904332 6.618948822334847,16.234482671904335 7,16.014482671904332" fill="#1F1F1F" />
<polyline points="5.881051177665153,17.100508075688772 5.881051177665153,17.54050807568877 5.5,17.760508075688772 5.118948822334847,17.54050807568877 5.118948822334847,17.100508075688772 5.5,16.88050807568877" fill="#1F1F1F" />
<polyline points="6.881051177665153,17.100508075688772 6.881051177665153,17.54050807568877 6.5,17.760508075688772 6.118948822334847,17.54050807568877 6.118948822334847,17.100508075688772 6.5,16.88050807568877" fill="#1F1F1F" />
<polyline points="6.381051177665153,17.966533479473213 6.381051177665153,18.40653347947321 6,18.626533479473213 5.618948822334847,18.40653347947321 5.618948822334847,17.966533479473213 6,17.74653347947321" fill="#1F1F1F" />
<polyline points="5.881051177665153,18.83255888325765 5.881051177665153,19.27255888325765 5.5,19.49255888325765 5.118948822334847,19.27255888325765 5.118948822334847,18.83255888325765 5.5,18.61255888325765" fill="#1F1F1F" />
<polyline points="6.881051177665153,18.83255888325765 6.881051177665153,19.27255888325765 6.5,19.49255888325765 6.118948822334847,19.27255888325765 6.118948822334847,18.83255888325765 6.5,18.61255888325765" fill="#1F1F1F" />
<polyline points="6.381051177665153,19.698584287042088 6.381051177665153,20.138584287042086 6,20.35858428704209 5.618948822334847,20.138584287042086 5.618948822334847,19.698584287042088 6,19.478584287042086" fill="#1F1F1F" />
<polyline points="5.881051177665153,20.56460969082653 5.881051177665153,21.004609690826527 5.5,21.22460969082653 5.118948822334847,21.004609690826527 5.118948822334847,20.56460969082653 5.5,20.344609690826527" fill="#1F1F1F" />
<polyline points="6.881051177665153,20.56460969082653 6.881051177665153,21.004609690826527 6.5,21.22460969082653 6.118948822334847,21.004609690826527 6.118948822334847,20.56460969082653 6.5,20.344609690826527" fill="#1F1F1F" />
<polyline points="5.381051177665153,21.430635094610967 5.381051177665153,21.870635094610964 5,22.090635094610967 4.618948822334847,21.870635094610964 4.618948822334847,21.430635094610967 5,21.210635094610964" fill="#1F1F1F" />
<polyline points="6.381051177665153,21.430635094610967 6.381051177665153,21.870635094610964 6,22.090635094610967 5.618948822334847,21.870635094610964 5.618948822334847,21.430635094610967 6,21.210635094610964" fill="#1F1F1F" />
<polyline points="7.381051177665153,21.430635094610967 7.381051177665153,21.870635094610964 7,22.090635094610967 6.618948822334847,21.870635094610964 6.618948822334847,21.430635094610967 7,21.210635094610964" fill="#1F1F1F" />
<polyline points="5.881051177665153,22.296660498395404 5.881051177665153,22.736660498395402 5.5,22.956660498395404 5.118948822334847,22.736660498395402 5.118948822334847,22.296660498395404 5.5,22.076660498395402" fill="#1F1F1F" />
<polyline points="6.881051177665153,22.296660498395404 6.881051177665153,22.736660498395402 6.5,22.956660498395404 6.118948822334847,22.736660498395402 6.118948822334847,22.296660498395404 6.5,22.076660498395402" fill="#1F1F1F" />
<polyline points="5.381051177665153,23.16268590217984 5.381051177665153,23.60268590217984 5,23.822685902179842 4.618948822334847,23.60268590217984 4.618948822334847,23.16268590217984 5,22.94268590217984" fill="#1F1F1F" />
<polyline points="6.381051177665153,23.16268590217984 6.381051177665153,23.60268590217984 6,23.822685902179842 5.618948822334847,23.60268590217984 5.618948822334847,23.16268590217984 6,22.94268590217984" fill="#1F1F1F" />
<polyline points="4.881051177665153,24.028711305964283 4.881051177665153,24.46871130596428 4.5,24.688711305964283 4.118948822334847,24.46871130596428 4.118948822334847,24.028711305964283 4.5,23.80871130596428" fill="#1F1F1F" />
<polyline points="5.881051177665153,24.028711305964283 5.881051177665153,24.46871130596428 5.5,24.688711305964283 5.118948822334847,24.46871130596428 5.118948822334847,24.028711305964283 5.5,23.80871130596428" fill="#1F1F1F" />
<polyline points="6.881051177665153,24.028711305964283 6.881051177665153,24.46871130596428 6.5,24.688711305964283 6.118948822334847,24.46871130596428 6.118948822334847,24.028711305964283 6.5,23.80871130596428" fill="#1F1F1F" />
<polyline points="4.381051177665153,24.89473670974872 4.381051177665153,25.334736709748718 4,25.55473670974872 3.618948822334847,25.334736709748718 3.618948822334847,24.89473670974872 4,24.674736709748718" fill="#1F1F1F" />
<polyline points="5.381051177665153,24.89473670974872 5.381051177665153,25.334736709748718 5,25.55473670974872 4.618948822334847,25.334736709748718 4.618948822334847,24.89473670974872 5,24.674736709748718" fill="#1F1F1F" />
<polyline points="6.381051177665153,24.89473670974872 6.381051177665153,25.334736709748718 6,25.55473670974872 5.618948822334847,25.334736709748718 5.618948822334847,24.89473670974872 6,24.674736709748718" fill="#1F1F1F" />
<polyline points="3.881051177665153,25.760762113533158 3.881051177665153,26.200762113533155 3.5,26.420762113533158 3.118948822334847,26.200762113533155 3.118948822334847,25.760762113533158 3.5,25.540762113533155" fill="#1F1F1F" />
<polyline points="4.881051177665153,25.760762113533158 4.881051177665153,26.200762113533155 4.5,26.420762113533158 4.118948822334847,26.200762113533155 4.118948822334847,25.760762113533158 4.5,25.540762113533155" fill="#1F1F1F" />
<polyline points="5.881051177665153,25.760762113533158 5.881051177665153,26.200762113533155 5.5,26.420762113533158 5.118948822334847,26.200762113533155 5.118948822334847,25.760762113533158 5.5,25.540762113533155" fill="#1F1F1F" />
<polyline points="4.381051177665153,26.6267875173176 4.381051177665153,27.066787517317596 4,27.2867875173176 3.618948822334847,27.066787517317596 3.618948822334847,26.6267875173176 4,26.406787517317596" fill="#1F1F1F" />
<polyline points="5.381051177665153,26.6267875173176 5.381051177665153,27.066787517317596 5,27.2867875173176 4.618948822334847,27.066787517317596 4.618948822334847,26.6267875173176 5,26.406787517317596" fill="#1F1F1F" />
<polyline points="3.881051177665153,27.492812921102036 3.881051177665153,27.932812921102034 3.5,28.152812921102036 3.118948822334847,27.932812921102034 3.118948822334847,27.492812921102036 3.5,27.272812921102034" fill="#1F1F1F" />
<polyline points="4.881051177665153,27.492812921102036 4.881051177665153,27.932812921102034 4.5,28.152812921102036 4.118948822334847,27.932812921102034 4.118948822334847,27.492812921102036 4.5,27.272812921102034" fill="#1F1F1F" />
<polyline points="5.881051177665153,27.492812921102036 5.881051177665153,27.932812921102034 5.5,28.152812921102036 5.118948822334847,27.932812921102034 5.118948822334847,27.492812921102036 5.5,27.272812921102034" fill="#1F1F1F" />
<polyline points="3.381051177665153,28.358838324886474 3.381051177665153,28.79883832488647 3,29.018838324886474 2.618948822334847,28.79883832488647 2.618948822334847,28.358838324886474 3,28.13883832488647" fill="#1F1F1F" />
<polyline points="4.381051177665153,28.358838324886474 4.381051177665153,28.79883832488647 4,29.018838324886474 3.618948822334847,28.79883832488647 3.618948822334847,28.358838324886474 4,28.13883832488647" fill="#1F1F1F" />
<polyline points="5.381051177665153,28.358838324886474 5.381051177665153,28.79883832488647 5,29.018838324886474 4.618948822334847,28.79883832488647 4.618948822334847,28.358838324886474 5,28.13883832488647" fill="#1F1F1F" />
<polyline points="3.881051177665153,29.224863728670915 3.881051177665153,29.664863728670912 3.5,29.884863728670915 3.118948822334847,29.664863728670912 3.118948822334847,29.224863728670915 3.5,29.004863728670912" fill="#1F1F1F" />
<polyline points="4.881051177665153,29.224863728670915 4.881051177665153,29.664863728670912 4.5,29.884863728670915 4.118948822334847,29.664863728670912 4.118948822334847,29.224863728670915 4.5,29.004863728670912" fill="#1F1F1F" />
<polyline points="5.881051177665153,29.224863728670915 5.881051177665153,29.664863728670912 5.5,29.884863728670915 5.118948822334847,29.664863728670912 5.118948822334847,29.224863728670915 5.5,29.004863728670912" fill="#1F1F1F" />
<polyline points="4.381051177665153,30.090889132455352 4.381051177665153,30.53088913245535 4,30.750889132455352 3.618948822334847,30.53088913245535 3.618948822334847,30.090889132455352 4,29.87088913245535" fill="#1F1F1F" />
<polyline points="5.381051177665153,30.090889132455352 5.381051177665153,30.53088913245535 5,30.750889132455352 4.618948822334847,30.53088913245535 4.618948822334847,30.090889132455352 5,29.87088913245535" fill="#1F1F1F" />
<polyline points="3.881051177665153,30.95691453623979 3.881051177665153,31.396914536239787 3.5,31.61691453623979 3.118948822334847,31.396914536239787 3.118948822334847,30.95691453623979 3.5,30.736914536239787" fill="#1F1F1F" />
<polyline points="4.881051177665153,30.95691453623979 4.881051177665153,31.396914536239787 4.5,31.61691453623979 4.118948822334847,31.396914536239787 4.118948822334847,30.95691453623979 4.5,30.736914536239787" fill="#1F1F1F" />
<polyline points="3.381051177665153,31.822939940024227 3.381051177665153,32.262939940024225 3,32.482939940024224 2.618948822334847,32.262939940024225 2.618948822334847,31.822939940024227 3,31.602939940024225" fill="#1F1F1F" />
<polyline points="4.381051177665153,31.822939940024227 4.381051177665153,32.262939940024225 4,32.482939940024224 3.618948822334847,32.262939940024225 3.618948822334847,31.822939940024227 4,31.602939940024225" fill="#1F1F1F" />
<polyline points="2.881051177665153,32.68896534380867 2.881051177665153,33.128965343808666 2.5,33.348965343808665 2.118948822334847,33.128965343808666 2.118948822334847,32.68896534380867 2.5,32.46896534380867" fill="#1F1F1F" />
<polyline points="3.881051177665153,32.68896534380867 3.881051177665153,33.128965343808666 3.5,33.348965343808665 3.118948822334847,33.128965343808666 3.118948822334847,32.68896534380867 3.5,32.46896534380867" fill="#1F1F1F" />
<polyline points="4.881051177665153,32.68896534380867 4.881051177665153,33.128965343808666 4.5,33.348965343808665 4.118948822334847,33.128965343808666 4.118948822334847,32.68896534380867 4.5,32.46896534380867" fill="#1F1F1F" />
<polyline points="3.381051177665153,33.55499074759311 3.381051177665153,33.99499074759311 3,34.214990747593106 2.618948822334847,33.99499074759311 2.618948822334847,33.55499074759311 3,33.33499074759311" fill="#1F1F1F" />
<polyline points="4.381051177665153,33.55499074759311 4.381051177665153,33.99499074759311 4,34.214990747593106 3.618948822334847,33.99499074759311 3.618948822334847,33.55499074759311 4,33.33499074759311" fill="#1F1F1F" />
<polyline points="2.881051177665153,34.42101615137754 2.881051177665153,34.86101615137754 2.5,35.08101615137754 2.118948822334847,34.86101615137754 2.118948822334847,34.42101615137754 2.5,34.201016151377544" fill="#1F1F1F" />
<polyline points="3.881051177665153,34.42101615137754 3.881051177665153,34.86101615137754 3.5,35.08101615137754 3.118948822334847,34.86101615137754 3.118948822334847,34.42101615137754 3.5,34.201016151377544" fill="#1F1F1F" />
<polyline points="4.881051177665153,34.42101615137754 4.881051177665153,34.86101615137754 4.5,35.08101615137754 4.118948822334847,34.86101615137754 4.118948822334847,34.42101615137754 4.5,34.201016151377544" fill="#1F1F1F" />
<polyline points="2.381051177665153,35.287041555161984 2.381051177665153,35.72704155516198 2,35.94704155516198 1.618948822334847,35.72704155516198 1.618948822334847,35.287041555161984 2,35.067041555161985" fill="#1F1F1F" />
<polyline points="4.381051177665153,35.287041555161984 4.381051177665153,35.72704155516198 4,35.94704155516198 3.618948822334847,35.72704155516198 3.618948822334847,35.287041555161984 4,35.067041555161985" fill="#1F1F1F" />
<polyline points="2.881051177665153,36.153066958946425 2.881051177665153,36.59306695894642 2.5,36.81306695894642 2.118948822334847,36.59306695894642 2.118948822334847,36.153066958946425 2.5,35.933066958946426" fill="#1F1F1F" />
<polyline points="3.881051177665153,36.153066958946425 3.881051177665153,36.59306695894642 3.5,36.81306695894642 3.118948822334847,36.59306695894642 3.118948822334847,36.153066958946425 3.5,35.933066958946426" fill="#1F1F1F" />
<polyline points="4.881051177665153,36.153066958946425 4.881051177665153,36.59306695894642 4.5,36.81306695894642 4.118948822334847,36.59306695894642 4.118948822334847,36.153066958946425 4.5,35.933066958946426" fill="#1F1F1F" />
<polyline points="4.381051177665153,37.01909236273086 4.381051177665153,37.45909236273086 4,37.679092362730856 3.618948822334847,37.45909236273086 3.618948822334847,37.01909236273086 4,36.79909236273086" fill="#1F1F1F" />
<polyline points="3.881051177665153,37.8851177665153 3.881051177665153,38.3251177665153 3.5,38.5451177665153 3.118948822334847,38.3251177665153 3.118948822334847,37.8851177665153 3.5,37.6651177665153" fill="#1F1F1F" />
<polyline points="4.881051177665153,37.8851177665153 4.881051177665153,38.3251177665153 4.5,38.5451177665153 4.118948822334847,38.3251177665153 4.118948822334847,37.8851177665153 4.5,37.6651177665153" fill="#1F1F1F" />
<polyline points="2.381051177665153,38.75114317029974 2.381051177665153,39.19114317029974 2,39.41114317029974 1.618948822334847,39.19114317029974 1.618948822334847,38.75114317029974 2,38.53114317029974" fill="#1F1F1F" />
<polyline points="3.381051177665153,38.75114317029974 3.381051177665153,39.19114317029974 3,39.41114317029974 2.618948822334847,39.19114317029974 2.618948822334847,38.75114317029974 3,38.53114317029974" fill="#1F1F1F" />
<polyline points="4.381051177665153,38.75114317029974 4.381051177665153,39.19114317029974 4,39.41114317029974 3.618948822334847,39.19114317029974 3.618948822334847,38.75114317029974 4,38.53114317029974" fill="#1F1F1F" />
<polyline points="5.381051177665153,38.75114317029974 5.381051177665153,39.19114317029974 5,39.41114317029974 4.618948822334847,39.19114317029974 4.618948822334847,38.75114317029974 5,38.53114317029974" fill="#1F1F1F" />
<polyline points="1.881051177665153,39.617168574084175 1.881051177665153,40.05716857408417 1.5,40.27716857408417 1.118948822334847,40.05716857408417 1.118948822334847,39.617168574084175 1.5,39.397168574084176" fill="#1F1F1F" />
<polyline points="2.881051177665153,39.617168574084175 2.881051177665153,40.05716857408417 2.5,40.27716857408417 2.118948822334847,40.05716857408417 2.118948822334847,39.617168574084175 2.5,39.397168574084176" fill="#1F1F1F" />
<polyline points="3.881051177665153,39.617168574084175 3.881051177665153,40.05716857408417 3.5,40.27716857408417 3.118948822334847,40.05716857408417 3.118948822334847,39.617168574084175 3.5,39.397168574084176" fill="#1F1F1F" />
<polyline points="4.881051177665153,39.617168574084175 4.881051177665153,40.05716857408417 4.5,40.27716857408417 4.118948822334847,40.05716857408417 4.118948822334847,39.617168574084175 4.5,39.397168574084176" fill="#1F1F1F" />
<polyline points="2.381051177665153,40.483193977868616 2.381051177665153,40.923193977868614 2,41.14319397786861 1.618948822334847,40.923193977868614 1.618948822334847,40.483193977868616 2,40.26319397786862" fill="#1F1F1F" />
<polyline points="3.381051177665153,40.483193977868616 3.381051177665153,40.923193977868614 3,41.14319397786861 2.618948822334847,40.923193977868614 2.618948822334847,40.483193977868616 3,40.26319397786862" fill="#1F1F1F" />
<polyline points="4.381051177665153,40.483193977868616 4.381051177665153,40.923193977868614 4,41.14319397786861 3.618948822334847,40.923193977868614 3.618948822334847,40.483193977868616 4,40.26319397786862" fill="#1F1F1F" />
<polyline points="5.381051177665153,40.483193977868616 5.381051177665153,40.923193977868614 5,41.14319397786861 4.618948822334847,40.923193977868614 4.618948822334847,40.483193977868616 5,40.26319397786862" fill="#1F1F1F" />
<polyline points="1.881051177665153,41.34921938165306 1.881051177665153,41.789219381653055 1.5,42.009219381653054 1.118948822334847,41.789219381653055 1.118948822334847,41.34921938165306 1.5,41.12921938165306" fill="#1F1F1F" />
<polyline points="2.881051177665153,41.34921938165306 2.881051177665153,41.789219381653055 2.5,42.009219381653054 2.118948822334847,41.789219381653055 2.118948822334847,41.34921938165306 2.5,41.12921938165306" fill="#1F1F1F" />
<polyline points="3.881051177665153,41.34921938165306 3.881051177665153,41.789219381653055 3.5,42.009219381653054 3.118948822334847,41.789219381653055 3.118948822334847,41.34921938165306 3.5,41.12921938165306" fill="#1F1F1F" />
<polyline points="4.881051177665153,41.34921938165306 4.881051177665153,41.789219381653055 4.5,42.009219381653054 4.118948822334847,41.789219381653055 4.118948822334847,41.34921938165306 4.5,41.12921938165306" fill="#1F1F1F" />
<polyline points="1.381051177665153,42.21524478543749 1.381051177665153,42.65524478543749 1,42.87524478543749 0.6189488223348469,42.65524478543749 0.6189488223348469,42.21524478543749 1,41.99524478543749" fill="#1F1F1F" />
<polyline points="2.381051177665153,42.21524478543749 2.381051177665153,42.65524478543749 2,42.87524478543749 1.618948822334847,42.65524478543749 1.618948822334847,42.21524478543749 2,41.99524478543749" fill="#1F1F1F" />
<polyline points="3.381051177665153,42.21524478543749 3.381051177665153,42.65524478543749 3,42.87524478543749 2.618948822334847,42.65524478543749 2.618948822334847,42.21524478543749 3,41.99524478543749" fill="#1F1F1F" />
<polyline points="4.381051177665153,42.21524478543749 4.381051177665153,42.65524478543749 4,42.87524478543749 3.618948822334847,42.65524478543749 3.618948822334847,42.21524478543749 4,41.99524478543749" fill="#1F1F1F" />
<polyline points="2.881051177665153,43.08127018922193 2.881051177665153,43.52127018922193 2.5,43.74127018922193 2.118948822334847,43.52127018922193 2.118948822334847,43.08127018922193 2.5,42.86127018922193" fill="#1F1F1F" />
<polyline points="3.881051177665153,43.08127018922193 3.881051177665153,43.52127018922193 3.5,43.74127018922193 3.118948822334847,43.52127018922193 3.118948822334847,43.08127018922193 3.5,42.86127018922193" fill="#1F1F1F" />
<polyline points="4.881051177665153,43.08127018922193 4.881051177665153,43.52127018922193 4.5,43.74127018922193 4.118948822334847,43.52127018922193 4.118948822334847,43.08127018922193 4.5,42.86127018922193" fill="#1F1F1F" />
<polyline points="1.381051177665153,43.947295593006366 1.381051177665153,44.387295593006364 1,44.60729559300636 0.6189488223348469,44.387295593006364 0.6189488223348469,43.947295593006366 1,43.72729559300637" fill="#1F1F1F" />
<polyline points="2.381051177665153,43.947295593006366 2.381051177665153,44.387295593006364 2,44.60729559300636 1.618948822334847,44.387295593006364 1.618948822334847,43.947295593006366 2,43.72729559300637" fill="#1F1F1F" />
<polyline points="3.381051177665153,43.947295593006366 3.381051177665153,44.387295593006364 3,44.60729559300636 2.618948822334847,44.387295593006364 2.618948822334847,43.947295593006366 3,43.72729559300637" fill="#1F1F1F" />
<polyline points="4.381051177665153,43.947295593006366 4.381051177665153,44.387295593006364 4,44.60729559300636 3.618948822334847,44.387295593006364 3.618948822334847,43.947295593006366 4,43.72729559300637" fill="#1F1F1F" />
<polyline points="0.8810511776651531,44.81332099679081 0.8810511776651531,45.253320996790805 0.5,45.473320996790804 0.118948822334847,45.253320996790805 0.118948822334847,44.81332099679081 0.5,44.59332099679081" fill="#1F1F1F" />
<polyline points="1.881051177665153,44.81332099679081 1.881051177665153,45.253320996790805 1.5,45.473320996790804 1.118948822334847,45.253320996790805 1.118948822334847,44.81332099679081 1.5,44.59332099679081" fill="#1F1F1F" />
<polyline points="2.881051177665153,44.81332099679081 2.881051177665153,45.253320996790805 2.5,45.473320996790804 2.118948822334847,45.253320996790805 2.118948822334847,44.81332099679081 2.5,44.59332099679081" fill="#1F1F1F" />
<polyline points="3.881051177665153,44.81332099679081 3.881051177665153,45.253320996790805 3.5,45.473320996790804 3.118948822334847,45.253320996790805 3.118948822334847,44.81332099679081 3.5,44.59332099679081" fill="#1F1F1F" />
<polyline points="1.381051177665153,45.67934640057525 1.381051177665153,46.119346400575246 1,46.339346400575245 0.6189488223348469,46.119346400575246 0.6189488223348469,45.67934640057525 1,45.45934640057525" fill="#1F1F1F" />
<polyline points="2.381051177665153,45.67934640057525 2.381051177665153,46.119346400575246 2,46.339346400575245 1.618948822334847,46.119346400575246 1.618948822334847,45.67934640057525 2,45.45934640057525" fill="#1F1F1F" />
<polyline points="3.381051177665153,45.67934640057525 3.381051177665153,46.119346400575246 3,46.339346400575245 2.618948822334847,46.119346400575246 2.618948822334847,45.67934640057525 3,45.45934640057525" fill="#1F1F1F" />
<polyline points="4.381051177665153,45.67934640057525 4.381051177665153,46.119346400575246 4,46.339346400575245 3.618948822334847,46.119346400575246 3.618948822334847,45.67934640057525 4,45.45934640057525" fill="#1F1F1F" />
<polyline points="0.8810511776651531,46.54537180435968 0.8810511776651531,46.98537180435968 0.5,47.20537180435968 0.118948822334847,46.98537180435968 0.118948822334847,46.54537180435968 0.5,46.32537180435968" fill="#1F1F1F" />
<polyline points="1.881051177665153,46.54537180435968 1.881051177665153,46.98537180435968 1.5,47.20537180435968 1.118948822334847,46.98537180435968 1.118948822334847,46.54537180435968 1.5,46.32537180435968" fill="#1F1F1F" />
<polyline points="2.881051177665153,46.54537180435968 2.881051177665153,46.98537180435968 2.5,47.20537180435968 2.118948822334847,46.98537180435968 2.118948822334847,46.54537180435968 2.5,46.32537180435968" fill="#1F1F1F" />
<polyline points="3.881051177665153,46.54537180435968 3.881051177665153,46.98537180435968 3.5,47.20537180435968 3.118948822334847,46.98537180435968 3.118948822334847,46.54537180435968 3.5,46.32537180435968" fill="#1F1F1F" />
<polyline points="1.381051177665153,47.41139720814412 1.381051177665153,47.85139720814412 1,48.07139720814412 0.6189488223348469,47.85139720814412 0.6189488223348469,47.41139720814412 1,47.191397208144124" fill="#1F1F1F" />
<polyline points="2.381051177665153,47.41139720814412 2.381051177665153,47.85139720814412 2,48.07139720814412 1.618948822334847,47.85139720814412 1.618948822334847,47.41139720814412 2,47.191397208144124" fill="#1F1F1F" />
<polyline points="0.8810511776651531,48.277422611928564 0.8810511776651531,48.71742261192856 0.5,48.93742261192856 0.118948822334847,48.71742261192856 0.118948822334847,48.277422611928564 0.5,48.057422611928565" fill="#1F1F1F" />
<polyline points="1.881051177665153,48.277422611928564 1.881051177665153,48.71742261192856 1.5,48.93742261192856 1.118948822334847,48.71742261192856 1.118948822334847,48.277422611928564 1.5,48.057422611928565" fill="#1F1F1F" />
<polyline points="2.881051177665153,48.277422611928564 2.881051177665153,48.71742261192856 2.5,48.93742261192856 2.118948822334847,48.71742261192856 2.118948822334847,48.277422611928564 2.5,48.057422611928565" fill="#1F1F1F" />
<polyline points="1.381051177665153,49.143448015713 1.381051177665153,49.583448015712996 1,49.803448015712995 0.6189488223348469,49.583448015712996 0.6189488223348469,49.143448015713 1,48.923448015713" fill="#1F1F1F" />
<polyline points="2.381051177665153,49.143448015713 2.381051177665153,49.583448015712996 2,49.803448015712995 1.618948822334847,49.583448015712996 1.618948822334847,49.143448015713 2,48.923448015713" fill="#1F1F1F" />
<polyline points="1.881051177665153,50.00947341949744 1.881051177665153,50.44947341949744 1.5,50.669473419497436 1.118948822334847,50.44947341949744 1.118948822334847,50.00947341949744 1.5,49.78947341949744" fill="#1F1F1F" />
<polyline points="2.881051177665153,50.00947341949744 2.881051177665153,50.44947341949744 2.5,50.669473419497436 2.118948822334847,50.44947341949744 2.118948822334847,50.00947341949744 2.5,49.78947341949744" fill="#1F1F1F" />
<polyline points="3.881051177665153,50.00947341949744 3.881051177665153,50.44947341949744 3.5,50.669473419497436 3.118948822334847,50.44947341949744 3.118948822334847,50.00947341949744 3.5,49.78947341949744" fill="#1F1F1F" />
<polyline points="1.381051177665153,50.87549882328188 1.381051177665153,51.31549882328188 1,51.53549882328188 0.6189488223348469,51.31549882328188 0.6189488223348469,50.87549882328188 1,50.65549882328188" fill="#1F1F1F" />
<polyline points="2.381051177665153,50.87549882328188 2.381051177665153,51.31549882328188 2,51.53549882328188 1.618948822334847,51.31549882328188 1.618948822334847,50.87549882328188 2,50.65549882328188" fill="#1F1F1F" />
<polyline points="3.381051177665153,50.87549882328188 3.381051177665153,51.31549882328188 3,51.53549882328188 2.618948822334847,51.31549882328188 2.618948822334847,50.87549882328188 3,50.65549882328188" fill="#1F1F1F" />
<polyline points="4.381051177665153,50.87549882328188 4.381051177665153,51.31549882328188 4,51.53549882328188 3.618948822334847,51.31549882328188 3.618948822334847,50.87549882328188 4,50.65549882328188" fill="#1F1F1F" />
<polyline points="1.881051177665153,51.741524227066314 1.881051177665153,52.18152422706631 1.5,52.40152422706631 1.118948822334847,52.18152422706631 1.118948822334847,51.741524227066314 1.5,51.521524227066315" fill="#1F1F1F" />
<polyline points="2.881051177665153,51.741524227066314 2.881051177665153,52.18152422706631 2.5,52.40152422706631 2.118948822334847,52.18152422706631 2.118948822334847,51.741524227066314 2.5,51.521524227066315" fill="#1F1F1F" />
<polyline points="3.881051177665153,51.741524227066314 3.881051177665153,52.18152422706631 3.5,52.40152422706631 3.118948822334847,52.18152422706631 3.118948822334847,51.741524227066314 3.5,51.521524227066315" fill="#1F1F1F" />
<polyline points="1.381051177665153,52.607549630850755 1.381051177665153,53.04754963085075 1,53.26754963085075 0.6189488223348469,53.04754963085075 0.6189488223348469,52.607549630850755 1,52.387549630850756" fill="#1F1F1F" />
<polyline points="2.381051177665153,52.607549630850755 2.381051177665153,53.04754963085075 2,53.26754963085075 1.618948822334847,53.04754963085075 1.618948822334847,52.607549630850755 2,52.387549630850756" fill="#1F1F1F" />
<polyline points="3.381051177665153,52.607549630850755 3.381051177665153,53.04754963085075 3,53.26754963085075 2.618948822334847,53.04754963085075 2.618948822334847,52.607549630850755 3,52.387549630850756" fill="#1F1F1F" />
<polyline points="4.381051177665153,52.607549630850755 4.381051177665153,53.04754963085075 4,53.26754963085075 3.618948822334847,53.04754963085075 3.618948822334847,52.607549630850755 4,52.387549630850756" fill="#1F1F1F" />
<polyline points="5.381051177665153,52.607549630850755 5.381051177665153,53.04754963085075 5,53.26754963085075 4.618948822334847,53.04754963085075 4.618948822334847,52.607549630850755 5,52.387549630850756" fill="#1F1F1F" />
<polyline points="6.381051177665153,52.607549630850755 6.381051177665153,53.04754963085075 6,53.26754963085075 5.618948822334847,53.04754963085075 5.618948822334847,52.607549630850755 6,52.387549630850756" fill="#1F1F1F" />
<polyline points="7.381051177665153,52.607549630850755 7.381051177665153,53.04754963085075 7,53.26754963085075 6.618948822334847,53.04754963085075 6.618948822334847,52.607549630850755 7,52.387549630850756" fill="#1F1F1F" />
<polyline points="2.881051177665153,53.473575034635196 2.881051177665153,53.913575034635194 2.5,54.13357503463519 2.118948822334847,53.913575034635194 2.118948822334847,53.473575034635196 2.5,53.2535750346352" fill="#1F1F1F" />
<polyline points="3.881051177665153,53.473575034635196 3.881051177665153,53.913575034635194 3.5,54.13357503463519 3.118948822334847,53.913575034635194 3.118948822334847,53.473575034635196 3.5,53.2535750346352" fill="#1F1F1F" />
<polyline points="4.881051177665153,53.473575034635196 4.881051177665153,53.913575034635194 4.5,54.13357503463519 4.118948822334847,53.913575034635194 4.118948822334847,53.473575034635196 4.5,53.2535750346352" fill="#1F1F1F" />
<polyline points="5.881051177665153,53.473575034635196 5.881051177665153,53.913575034635194 5.5,54.13357503463519 5.118948822334847,53.913575034635194 5.118948822334847,53.473575034635196 5.5,53.2535750346352" fill="#1F1F1F" />
<polyline points="6.881051177665153,53.473575034635196 6.881051177665153,53.913575034635194 6.5,54.13357503463519 6.118948822334847,53.913575034635194 6.118948822334847,53.473575034635196 6.5,53.2535750346352" fill="#1F1F1F" />
<polyline points="2.381051177665153,54.33960043841963 2.381051177665153,54.77960043841963 2,54.99960043841963 1.618948822334847,54.77960043841963 1.618948822334847,54.33960043841963 2,54.11960043841963" fill="#1F1F1F" />
<polyline points="3.381051177665153,54.33960043841963 3.381051177665153,54.77960043841963 3,54.99960043841963 2.618948822334847,54.77960043841963 2.618948822334847,54.33960043841963 3,54.11960043841963" fill="#1F1F1F" />
<polyline points="4.381051177665153,54.33960043841963 4.381051177665153,54.77960043841963 4,54.99960043841963 3.618948822334847,54.77960043841963 3.618948822334847,54.33960043841963 4,54.11960043841963" fill="#1F1F1F" />
<polyline points="5.381051177665153,54.33960043841963 5.381051177665153,54.77960043841963 5,54.99960043841963 4.618948822334847,54.77960043841963 4.618948822334847,54.33960043841963 5,54.11960043841963" fill="#1F1F1F" />
<polyline points="6.381051177665153,54.33960043841963 6.381051177665153,54.77960043841963 6,54.99960043841963 5.618948822334847,54.77960043841963 5.618948822334847,54.33960043841963 6,54.11960043841963" fill="#1F1F1F" />
<polyline points="7.381051177665153,54.33960043841963 7.381051177665153,54.77960043841963 7,54.99960043841963 6.618948822334847,54.77960043841963 6.618948822334847,54.33960043841963 7,54.11960043841963" fill="#1F1F1F" />
<polyline points="8.381051177665153,54.33960043841963 8.381051177665153,54.77960043841963 8,54.99960043841963 7.618948822334847,54.77960043841963 7.618948822334847,54.33960043841963 8,54.11960043841963" fill="#1F1F1F" />
<polyline points="2.881051177665153,55.20562584220407 2.881051177665153,55.64562584220407 2.5,55.86562584220407 2.118948822334847,55.64562584220407 2.118948822334847,55.20562584220407 2.5,54.98562584220407" fill="#1F1F1F" />
<polyline points="4.881051177665153,55.20562584220407 4.881051177665153,55.64562584220407 4.5,55.86562584220407 4.118948822334847,55.64562584220407 4.118948822334847,55.20562584220407 4.5,54.98562584220407" fill="#1F1F1F" />
<polyline points="5.881051177665153,55.20562584220407 5.881051177665153,55.64562584220407 5.5,55.86562584220407 5.118948822334847,55.64562584220407 5.118948822334847,55.20562584220407 5.5,54.98562584220407" fill="#1F1F1F" />
<polyline points="7.881051177665153,55.20562584220407 7.881051177665153,55.64562584220407 7.5,55.86562584220407 7.118948822334847,55.64562584220407 7.118948822334847,55.20562584220407 7.5,54.98562584220407" fill="#1F1F1F" />
<polyline points="8.881051177665153,55.20562584220407 8.881051177665153,55.64562584220407 8.5,55.86562584220407 8.118948822334847,55.64562584220407 8.118948822334847,55.20562584220407 8.5,54.98562584220407" fill="#1F1F1F" />
<polyline points="3.381051177665153,56.07165124598851 3.381051177665153,56.51165124598851 3,56.73165124598851 2.618948822334847,56.51165124598851 2.618948822334847,56.07165124598851 3,55.85165124598851" fill="#1F1F1F" />
<polyline points="4.381051177665153,56.07165124598851 4.381051177665153,56.51165124598851 4,56.73165124598851 3.618948822334847,56.51165124598851 3.618948822334847,56.07165124598851 4,55.85165124598851" fill="#1F1F1F" />
<polyline points="7.381051177665153,56.07165124598851 7.381051177665153,56.51165124598851 7,56.73165124598851 6.618948822334847,56.51165124598851 6.618948822334847,56.07165124598851 7,55.85165124598851" fill="#1F1F1F" />
<polyline points="8.381051177665153,56.07165124598851 8.381051177665153,56.51165124598851 8,56.73165124598851 7.618948822334847,56.51165124598851 7.618948822334847,56.07165124598851 8,55.85165124598851" fill="#1F1F1F" />
<polyline points="4.881051177665153,56.937676649772946 4.881051177665153,57.377676649772944 4.5,57.59767664977294 4.118948822334847,57.377676649772944 4.118948822334847,56.937676649772946 4.5,56.71767664977295" fill="#1F1F1F" />
<polyline points="5.881051177665153,56.937676649772946 5.881051177665153,57.377676649772944 5.5,57.59767664977294 5.118948822334847,57.377676649772944 5.118948822334847,56.937676649772946 5.5,56.71767664977295" fill="#1F1F1F" />
<polyline points="6.881051177665153,56.937676649772946 6.881051177665153,57.377676649772944 6.5,57.59767664977294 6.118948822334847,57.377676649772944 6.118948822334847,56.937676649772946 6.5,56.71767664977295" fill="#1F1F1F" />
<polyline points="7.881051177665153,56.937676649772946 7.881051177665153,57.377676649772944 7.5,57.59767664977294 7.118948822334847,57.377676649772944 7.118948822334847,56.937676649772946 7.5,56.71767664977295" fill="#1F1F1F" />
<polyline points="8.881051177665153,56.937676649772946 8.881051177665153,57.377676649772944 8.5,57.59767664977294 8.118948822334847,57.377676649772944 8.118948822334847,56.937676649772946 8.5,56.71767664977295" fill="#1F1F1F" />
<polyline points="5.381051177665153,57.80370205355739 5.381051177665153,58.243702053557385 5,58.463702053557384 4.618948822334847,58.243702053557385 4.618948822334847,57.80370205355739 5,57.58370205355739" fill="#1F1F1F" />
<polyline points="6.381051177665153,57.80370205355739 6.381051177665153,58.243702053557385 6,58.463702053557384 5.618948822334847,58.243702053557385 5.618948822334847,57.80370205355739 6,57.58370205355739" fill="#1F1F1F" />
<polyline points="7.381051177665153,57.80370205355739 7.381051177665153,58.243702053557385 7,58.463702053557384 6.618948822334847,58.243702053557385 6.618948822334847,57.80370205355739 7,57.58370205355739" fill="#1F1F1F" />
<polyline points="8.381051177665153,57.80370205355739 8.381051177665153,58.243702053557385 8,58.463702053557384 7.618948822334847,58.243702053557385 7.618948822334847,57.80370205355739 8,57.58370205355739" fill="#1F1F1F" />
<polyline points="6.881051177665153,58.66972745734183 6.881051177665153,59.109727457341826 6.5,59.329727457341825 6.118948822334847,59.109727457341826 6.118948822334847,58.66972745734183 6.5,58.44972745734183" fill="#1F1F1F" />
<polyline points="7.881051177665153,58.66972745734183 7.881051177665153,59.109727457341826 7.5,59.329727457341825 7.118948822334847,59.109727457341826 7.118948822334847,58.66972745734183 7.5,58.44972745734183" fill="#1F1F1F" />
<polyline points="8.881051177665153,58.66972745734183 8.881051177665153,59.109727457341826 8.5,59.329727457341825 8.118948822334847,59.109727457341826 8.118948822334847,58.66972745734183 8.5,58.44972745734183" fill="#1F1F1F" />
<polyline points="9.881051177665153,58.66972745734183 9.881051177665153,59.109727457341826 9.5,59.329727457341825 9.118948822334847,59.109727457341826 9.118948822334847,58.66972745734183 9.5,58.44972745734183" fill="#1F1F1F" />
<polyline points="10.881051177665153,58.66972745734183 10.881051177665153,59.109727457341826 10.5,59.329727457341825 10.118948822334847,59.109727457341826 10.118948822334847,58.66972745734183 10.5,58.44972745734183" fill="#1F1F1F" />
<polyline points="9.381051177665153,59.53575286112626 9.381051177665153,59.97575286112626 9,60.19575286112626 8.618948822334847,59.97575286112626 8.618948822334847,59.53575286112626 9,59.31575286112626" fill="#1F1F1F" />
<polyline points="-6.307179676972449,-16.854482671904332 -6.307179676972449,-16.054482671904335 -7,-15.654482671904333 -7.692820323027551,-16.054482671904335 -7.692820323027551,-16.854482671904332 -7,-17.254482671904334" fill="#d6ff79" />
<polyline points="99.19282032302755,-90.46664199358162 99.19282032302755,-89.6666419935816 98.5,-89.26664199358162 97.80717967697245,-89.6666419935816 97.80717967697245,-90.46664199358162 98.5,-90.86664199358161" fill="#1F1F1F" />
      </svg>