<svg width="101" height="146" viewBox="0 0 101 146" fill="none" xmlns="http://www.w3.org/2000/svg">
<path d="M50 1L3 124C3 124 14 121.5 29.5 121.5C45 121.5 54 124 54 124L50 1Z" fill="white" stroke="white"/>
<path d="M61 27.5L37 126.5L99.5 129.5L61 27.5Z" fill="white" stroke="white"/>
<path d="M2.81651 135.909C2.81651 135.909 1 136.817 1 139.542C1 142.267 1.90826 143.175 2.81651 142.721C3.72477 142.267 11.445 130.459 11.445 130.459L7.81193 141.813L15.078 130.913C15.078 130.913 11.445 143.175 12.3532 143.629C13.2615 144.083 15.078 141.813 15.9862 141.813C16.8945 141.813 19.1651 144.991 20.9817 144.991C22.7982 144.991 27.7936 135.001 32.789 135.001C37.7844 135.001 39.1468 143.629 43.6881 143.629C48.2294 143.629 51.4083 135.909 55.9495 135.909C60.4908 135.909 62.3073 143.629 66.8486 143.629C71.3899 143.629 73.6606 135.909 79.1101 135.909C84.5596 135.909 88.1927 144.088 92.2798 144.537C96.367 144.986 96.8211 144.088 97.7294 142.267C98.6376 140.445 98.6376 139.547 98.6376 138.634C98.6376 137.72 96.367 136.363 95.4587 135.455C94.5505 134.546 94.637 132.667 95.0046 131.368C95.4363 129.841 98.1835 130.005 98.1835 130.005L100 130.459" stroke="white" stroke-width="2"/>
<circle cx="20.0734" cy="136.358" r="1.81651" fill="white"/>
<circle cx="43.6881" cy="136.358" r="1.81651" fill="white"/>
<circle cx="66.3945" cy="136.358" r="1.81651" fill="white"/>
<circle cx="90.9174" cy="136.358" r="1.81651" fill="white"/>
</svg>
