<svg width="101" height="147" viewBox="0 0 101 147" fill="none" xmlns="http://www.w3.org/2000/svg">
<path d="M50 1L3 124C3 124 14 121.5 29.5 121.5C45 121.5 54 124 54 124L50 1Z" fill="#132C77" stroke="#132C77"/>
<path d="M61 27.5L37 126.5L99.5 129.5L61 27.5Z" fill="#132C77" stroke="#132C77"/>
<path d="M2.81651 136.409C2.81651 136.409 1 137.317 1 140.042C1 142.767 1.90826 143.675 2.81651 143.221C3.72477 142.767 11.445 130.959 11.445 130.959L7.81193 142.313L15.078 131.413C15.078 131.413 11.445 143.675 12.3532 144.129C13.2615 144.583 15.078 142.313 15.9862 142.313C16.8945 142.313 19.1651 145.491 20.9817 145.491C22.7982 145.491 27.7936 135.501 32.789 135.501C37.7844 135.501 39.1468 144.129 43.6881 144.129C48.2294 144.129 51.4083 136.409 55.9495 136.409C60.4908 136.409 62.3073 144.129 66.8486 144.129C71.3899 144.129 73.6606 136.409 79.1101 136.409C84.5596 136.409 88.1927 144.588 92.2798 145.037C96.367 145.486 96.8211 144.588 97.7294 142.767C98.6376 140.945 98.6376 140.047 98.6376 139.134C98.6376 138.22 96.367 136.863 95.4587 135.955C94.5505 135.046 94.637 133.167 95.0046 131.868C95.4363 130.341 98.1835 130.505 98.1835 130.505L100 130.959" stroke="#132C77" stroke-width="2"/>
<circle cx="20.0734" cy="136.858" r="1.81651" fill="#132C77"/>
<circle cx="43.6881" cy="136.858" r="1.81651" fill="#132C77"/>
<circle cx="66.3945" cy="136.858" r="1.81651" fill="#132C77"/>
<circle cx="90.9174" cy="136.858" r="1.81651" fill="#132C77"/>
</svg>
